<svg width="592" height="385" viewBox="0 0 592 385" fill="none" xmlns="http://www.w3.org/2000/svg">
<path d="M257.367 384.835H0V333.848H257.367V384.835Z" fill="white"/>
<path fill-rule="evenodd" clip-rule="evenodd" d="M257.367 179.671H257.363C257.364 179.874 257.367 180.075 257.367 180.278C257.367 251.683 199.753 309.568 128.683 309.568C57.6134 309.568 0 251.683 0 180.278C0 108.873 57.6134 50.9877 128.683 50.9877C157.871 50.9877 184.789 60.7531 206.379 77.2072V0H257.367V179.671ZM128.683 101.975C85.7732 101.975 50.9877 137.033 50.9877 180.278C50.9877 223.523 85.7732 258.581 128.683 258.581C171.593 258.581 206.379 223.523 206.379 180.278C206.379 137.033 171.593 101.975 128.683 101.975Z" fill="white"/>
<path d="M436.431 0C521.916 0 591.215 69.2992 591.215 154.784C591.215 239.255 523.55 307.918 439.466 309.536V309.568H356.915V258.533H439.466C495.387 256.927 540.228 211.094 540.228 154.784C540.228 97.459 493.938 51.3662 436.613 51.3662C379.288 51.3662 333.377 97.459 333.377 154.784C333.377 157.212 333.377 161.461 333.377 161.461V309.568H281.647V154.177H281.651C281.977 68.9715 351.148 0 436.431 0Z" fill="white"/>
</svg>
